<svg xmlns="http://www.w3.org/2000/svg" xmlns:xlink="http://www.w3.org/1999/xlink" xmlns:lucid="lucid" width="1380" height="900"><g transform="translate(460 160)" lucid:page-tab-id="0_0"><path d="M-440 380h260v340h-260z" stroke="#000" stroke-opacity="0" stroke-width="2" fill="#e5e5e5"/><use xlink:href="#a" transform="matrix(1,0,0,1,-435,385) translate(0 14.4)"/><path d="M-100 590h460v130h-460z" stroke="#000" stroke-width="2" fill="#3aa6dd"/><use xlink:href="#b" transform="matrix(1,0,0,1,-95,595) translate(182.8148148148148 21.333333333333336)"/><path d="M420 590h480v130H420z" stroke="#000" stroke-width="2" fill="#5abaa7"/><use xlink:href="#c" transform="matrix(1,0,0,1,425,595) translate(209.11111111111111 21.333333333333336)"/><path d="M-77.33 650H43.33v60H-77.33z" stroke="#000" stroke-width="2" fill="#99d2f2"/><use xlink:href="#d" transform="matrix(1,0,0,1,-72.33333333333348,655) translate(41.075 28.6)"/><path d="M69.33 650H188v60H69.33z" stroke="#000" stroke-width="2" fill="#99d2f2"/><use xlink:href="#e" transform="matrix(1,0,0,1,74.33333333333314,655) translate(22.074999999999996 28.6)"/><path d="M221.33 650H340v60H221.33z" stroke="#000" stroke-width="2" fill="#99d2f2"/><use xlink:href="#f" transform="matrix(1,0,0,1,226.33333333333326,655) translate(43.5 28.6)"/><path d="M440 650h120v60H440z" stroke="#000" stroke-width="2" fill="#99d5ca"/><use xlink:href="#d" transform="matrix(1,0,0,1,445,655) translate(40.575 28.6)"/><path d="M590 650h120v60H590z" stroke="#000" stroke-width="2" fill="#99d5ca"/><use xlink:href="#e" transform="matrix(1,0,0,1,595,655) translate(22.574999999999996 28.6)"/><path d="M740 650h120v60H740z" stroke="#000" stroke-width="2" fill="#99d5ca"/><use xlink:href="#g" transform="matrix(1,0,0,1,745,655) translate(9.200000000000003 28.6)"/><path d="M-100 340h460v190h-460z" stroke="#000" stroke-width="2" fill="#ef8d22"/><use xlink:href="#h" transform="matrix(1,0,0,1,-95,345) translate(174.7037037037037 21.333333333333336)"/><path d="M420 340h480v190H420z" stroke="#000" stroke-width="2" fill="#fcc438"/><use xlink:href="#i" transform="matrix(1,0,0,1,425,345) translate(192.92592592592592 21.333333333333336)"/><path d="M420 166h480v68H420z" stroke="#000" stroke-width="2" fill="#d1bcd2"/><use xlink:href="#j" transform="matrix(1,0,0,1,425,171) translate(128.14814814814815 34.333333333333336)"/><path d="M-98.67 118h460v150h-460z" stroke="#000" stroke-width="2" fill="#f5b5c8"/><use xlink:href="#k" transform="matrix(1,0,0,1,-93.66666666666674,123) translate(168.8148148148148 21.333333333333336)"/><path d="M-81.33 380h200v60h-200z" stroke="#000" stroke-width="2" fill="#ffdba9"/><use xlink:href="#l" transform="matrix(1,0,0,1,-76.33333333333348,385) translate(21.599999999999994 28.6)"/><path d="M140 380h200v60H140z" stroke="#000" stroke-width="2" fill="#ffdba9"/><use xlink:href="#m" transform="matrix(1,0,0,1,145,385) translate(20.125 28.6)"/><path d="M8.67 460h240v60h-240z" fill="#ffdba9"/><path d="M48.67 460h40m20 0h40m20 0h40m20 0h20v20m0 20v20h-20m-20 0h-40m-20 0h-40m-20 0h-40m-20 0h-20v-20m0-20v-20h20" stroke="#000" stroke-width="2" fill="none"/><use xlink:href="#n" transform="matrix(1,0,0,1,13.666666666666515,465) translate(12.150000000000006 28.6)"/><path d="M540 460h240v60H540z" fill="#ffeca9"/><path d="M580 460h40m20 0h40m20 0h40m20 0h20v20m0 20v20h-20m-20 0h-40m-20 0h-40m-20 0h-40m-20 0h-20v-20m0-20v-20h20" stroke="#000" stroke-width="2" fill="none"/><use xlink:href="#o" transform="matrix(1,0,0,1,545,465) translate(17.875000000000014 28.6)"/><path d="M-79.33 174h200v60h-200z" stroke="#000" stroke-width="2" fill="#f9d2de"/><use xlink:href="#p" transform="matrix(1,0,0,1,-74.33333333333337,179) translate(17.625 28.6)"/><path d="M140 174h200v60H140z" stroke="#000" stroke-width="2" fill="#f9d2de"/><use xlink:href="#q" transform="matrix(1,0,0,1,145,179) translate(16.150000000000006 28.6)"/><path d="M440 380h200v60H440z" stroke="#000" stroke-width="2" fill="#ffeca9"/><use xlink:href="#r" transform="matrix(1,0,0,1,445,385) translate(27.32499999999999 28.6)"/><path d="M680 380h200v60H680z" stroke="#000" stroke-width="2" fill="#ffeca9"/><use xlink:href="#s" transform="matrix(1,0,0,1,685,385) translate(25.849999999999994 28.6)"/><path d="M130 570.5V532" fill="none"/><path d="M130 570.5v-12.83m0-12.84V532" stroke="#000" stroke-width="2" fill="none"/><path d="M130 585.76l-4.64-14.26h9.28z" stroke="#000" stroke-width="2"/><path d="M131 532.03h-2V531h2z"/><path d="M660 570.5V532" fill="none"/><path d="M660 570.5v-12.83m0-12.84V532" stroke="#000" stroke-width="2" fill="none"/><path d="M660 585.76l-4.64-14.26h9.28z" stroke="#000" stroke-width="2"/><path d="M661 532.03h-2V531h2z"/><path d="M-360 174h240v60h-240z" fill="#f9d2de"/><path d="M-320 174h40m20 0h40m20 0h40m20 0h20v20m0 20v20h-20m-20 0h-40m-20 0h-40m-20 0h-40m-20 0h-20v-20m0-20v-20h20" stroke="#000" stroke-width="2" fill="none"/><use xlink:href="#t" transform="matrix(1,0,0,1,-355,179) translate(23.125000000000014 28.6)"/><path d="M-420 640h220v60h-220z" fill="#fff"/><path d="M-399.05 640h20.95m10.48 0h20.95m10.48 0h20.96m10.48 0h20.95m10.47 0h20.95m10.48 0h20.95m10.47 0H-200v10m0 10v20m0 10v10h-10.48m-10.47 0h-20.95m-10.48 0h-20.95m-10.48 0h-20.96m-10.48 0h-20.95m-10.47 0h-20.95m-10.48 0h-20.95m-10.47 0H-420v-10m0-10v-20m0-10v-10h10.48" stroke="#000" stroke-width="2" fill="none"/><use xlink:href="#u" transform="matrix(1,0,0,1,-415,645) translate(52.574999999999996 28.6)"/><use xlink:href="#v" transform="matrix(1,0,0,1,-415,645) translate(109.475 28.6)"/><path d="M-420 550h220v60h-220z" stroke="#000" stroke-width="2" fill="#fff"/><use xlink:href="#w" transform="matrix(1,0,0,1,-415,555) translate(47.074999999999996 28.6)"/><use xlink:href="#v" transform="matrix(1,0,0,1,-415,555) translate(114.975 28.6)"/><path d="M-100-22H900v68H-100z" stroke="#000" stroke-width="2" fill="#ffbbb1"/><use xlink:href="#x" transform="matrix(1,0,0,1,-95,-17) translate(427.679012345679 35.22222222222222)"/><path d="M-419 440h60.5" fill="none"/><path d="M-419 440h10.08m10.1 0h20.15m10.1 0h10.07M-418.97 440H-420" stroke="#000" stroke-width="2" fill="none"/><path d="M-343.24 440l-14.26 4.64v-9.28z" stroke="#000" stroke-width="2"/><path d="M-419 500h60.5M-418.97 500H-420" stroke="#000" stroke-width="2" fill="none"/><path d="M-343.24 500l-14.26 4.64v-9.28z" stroke="#000" stroke-width="2"/><path d="M-300 410h80v60h-80z" stroke="#000" stroke-opacity="0" stroke-width="2" fill="#fff" fill-opacity="0"/><use xlink:href="#y" transform="matrix(1,0,0,1,-295,415) translate(14.524999999999999 28.6)"/><path d="M-300 470h80v60h-80z" stroke="#000" stroke-opacity="0" stroke-width="2" fill="#fff" fill-opacity="0"/><use xlink:href="#z" transform="matrix(1,0,0,1,-295,475) translate(-2.9750000000000014 28.6)"/><path d="M131.33 270v50.5" fill="none"/><path d="M131.33 270v8.42m0 8.4v16.85m0 8.4v8.43" stroke="#000" stroke-width="2" fill="none"/><path d="M132.33 270.03h-2V269h2z"/><path d="M131.33 335.76l-4.63-14.26h9.27z" stroke="#000" stroke-width="2"/><path d="M-360 234h240v66h-240z" stroke="#000" stroke-opacity="0" stroke-width="2" fill="#fff" fill-opacity="0"/><use xlink:href="#A" transform="matrix(1,0,0,1,-355,239) translate(0 10.666666666666668)"/><use xlink:href="#B" transform="matrix(1,0,0,1,-355,239) translate(53.22222222222222 10.666666666666668)"/><use xlink:href="#C" transform="matrix(1,0,0,1,-355,239) translate(79.14814814814815 10.666666666666668)"/><use xlink:href="#D" transform="matrix(1,0,0,1,-355,239) translate(111.74074074074075 10.666666666666668)"/><use xlink:href="#E" transform="matrix(1,0,0,1,-355,239) translate(133.96296296296296 10.666666666666668)"/><use xlink:href="#F" transform="matrix(1,0,0,1,-355,239) translate(159.14814814814815 10.666666666666668)"/><use xlink:href="#G" transform="matrix(1,0,0,1,-355,239) translate(170.25925925925927 10.666666666666668)"/><path d="M660 236v84.5" fill="none"/><path d="M660 236v9.4m0 9.38v18.77m0 9.4v18.77m0 9.4v9.38" stroke="#000" stroke-width="2" fill="none"/><path d="M661 236.03h-2V235h2z"/><path d="M660 335.76l-4.64-14.26h9.28z" stroke="#000" stroke-width="2"/><path d="M160-140h460v68H160z" stroke="#000" stroke-width="2" fill="#ffbbb1"/><use xlink:href="#H" transform="matrix(1,0,0,1,165,-135) translate(127.4320987654321 35.22222222222222)"/><path d="M131.33 116V65.5" stroke="#000" stroke-width="2" fill="none"/><path d="M132.33 117h-2v-1.03h2z"/><path d="M131.33 50.24l4.64 14.26h-9.27z" stroke="#000" stroke-width="2"/><path d="M660.67 65.5V164" fill="none"/><path d="M660.67 65.5v10.95m0 10.94v21.88m0 10.94v21.9m0 10.94V164" stroke="#000" stroke-width="2" fill="none"/><path d="M660.67 50.24l4.63 14.26h-9.27z" stroke="#000" stroke-width="2"/><path d="M661.67 165h-2v-1.03h2z"/><path d="M400-24v-28.5" fill="none"/><path d="M400-24v-9.5m0-9.5v-9.5" stroke="#000" stroke-width="2" fill="none"/><path d="M401-23h-2v-1.03h2z"/><path d="M400-67.76l4.64 14.26h-9.28z" stroke="#000" stroke-width="2"/><defs><path d="M24 0v-248h52v208h133V0H24" id="I"/><path d="M185-48c-13 30-37 53-82 52C43 2 14-33 14-96s30-98 90-98c62 0 83 45 84 108H66c0 31 8 55 39 56 18 0 30-7 34-22zm-45-69c5-46-57-63-70-21-2 6-4 13-4 21h74" id="J"/><path d="M195-6C206 82 75 100 31 46c-4-6-6-13-8-21l49-6c3 16 16 24 34 25 40 0 42-37 40-79-11 22-30 35-61 35-53 0-70-43-70-97 0-56 18-96 73-97 30 0 46 14 59 34l2-30h47zm-90-29c32 0 41-27 41-63 0-35-9-62-40-62-32 0-39 29-40 63 0 36 9 62 39 62" id="K"/><path d="M135-194c87-1 58 113 63 194h-50c-7-57 23-157-34-157-59 0-34 97-39 157H25l-1-190h47c2 12-1 28 3 38 12-26 28-41 61-42" id="L"/><path d="M88-194c31-1 46 15 58 34l-1-101h50l1 261h-48c-2-10 0-23-3-31C134-8 116 4 84 4 32 4 16-41 15-95c0-56 19-97 73-99zm17 164c33 0 40-30 41-66 1-37-9-64-41-64s-38 30-39 65c0 43 13 65 39 65" id="M"/><g id="a"><use transform="matrix(0.05,0,0,0.05,0,0)" xlink:href="#I"/><use transform="matrix(0.05,0,0,0.05,10.950000000000001,0)" xlink:href="#J"/><use transform="matrix(0.05,0,0,0.05,20.950000000000003,0)" xlink:href="#K"/><use transform="matrix(0.05,0,0,0.05,31.900000000000006,0)" xlink:href="#J"/><use transform="matrix(0.05,0,0,0.05,41.900000000000006,0)" xlink:href="#L"/><use transform="matrix(0.05,0,0,0.05,52.85,0)" xlink:href="#M"/></g><path d="M194-120c59 52 2 134-86 124-53-6-90-18-98-63l31-7c8 30 29 43 70 43 46 0 84-17 71-62-32-43-135-20-137-98-3-89 178-90 191-16l-30 9c-8-48-127-53-127 5 0 53 81 35 115 65" id="N"/><path d="M30-147c31-64 166-65 159 27C183-49 158 1 86 4 9 8 1-88 30-147zM88-20c53 0 68-48 68-100 0-31-11-51-44-50-52 1-68 46-68 97 0 32 13 53 44 53" id="O"/><path d="M67 3c-93-2-31-127-26-193h32L48-50c-3 39 53 32 70 12 30-34 30-101 43-152h32L157 0h-30c1-10 6-24 4-33-14 20-29 37-64 36" id="P"/><path d="M66-151c12-25 30-51 66-40l-6 26C45-176 58-65 38 0H6l36-190h30" id="Q"/><path d="M44-68c0 29 11 47 38 47 30 0 42-19 51-41l28 9C148-21 126 4 82 4 31 4 10-29 12-85c3-77 74-140 146-93 12 8 15 23 18 40l-31 5c-1-22-13-36-36-36-52 0-65 49-65 101" id="R"/><path d="M111-194c62-3 86 47 72 106H45c-7 38 6 69 45 68 27-1 43-14 53-32l24 11C152-15 129 4 87 4 38 3 12-23 12-71c0-70 32-119 99-123zm44 81c14-66-71-72-95-28-4 8-8 17-11 28h106" id="S"/><g id="b"><use transform="matrix(0.07407407407407408,0,0,0.07407407407407408,0,0)" xlink:href="#N"/><use transform="matrix(0.07407407407407408,0,0,0.07407407407407408,17.77777777777778,0)" xlink:href="#O"/><use transform="matrix(0.07407407407407408,0,0,0.07407407407407408,32.592592592592595,0)" xlink:href="#P"/><use transform="matrix(0.07407407407407408,0,0,0.07407407407407408,47.40740740740741,0)" xlink:href="#Q"/><use transform="matrix(0.07407407407407408,0,0,0.07407407407407408,56.22222222222223,0)" xlink:href="#R"/><use transform="matrix(0.07407407407407408,0,0,0.07407407407407408,69.55555555555557,0)" xlink:href="#S"/></g><path d="M50-231l6-30h32l-6 30H50zM6 0l37-190h31L37 0H6" id="T"/><path d="M67-158c22-48 132-52 116 29L158 0h-32l25-140c3-38-53-32-70-12C52-117 51-52 38 0H6l36-190h30" id="U"/><path d="M127 0L80-88 50-66 37 0H6l51-261h31L57-100l99-90h39l-93 82L161 0h-34" id="V"/><g id="c"><use transform="matrix(0.07407407407407408,0,0,0.07407407407407408,0,0)" xlink:href="#N"/><use transform="matrix(0.07407407407407408,0,0,0.07407407407407408,17.77777777777778,0)" xlink:href="#T"/><use transform="matrix(0.07407407407407408,0,0,0.07407407407407408,23.629629629629633,0)" xlink:href="#U"/><use transform="matrix(0.07407407407407408,0,0,0.07407407407407408,38.44444444444445,0)" xlink:href="#V"/></g><path d="M63-220v92h138v28H63V0H30v-248h175v28H63" id="W"/><path d="M24-231v-30h32v30H24zM24 0v-190h32V0H24" id="X"/><path d="M24 0v-261h32V0H24" id="Y"/><path d="M100-194c63 0 86 42 84 106H49c0 40 14 67 53 68 26 1 43-12 49-29l28 8c-11 28-37 45-77 45C44 4 14-33 15-96c1-61 26-98 85-98zm52 81c6-60-76-77-97-28-3 7-6 17-6 28h103" id="Z"/><g id="d"><use transform="matrix(0.05,0,0,0.05,0,0)" xlink:href="#W"/><use transform="matrix(0.05,0,0,0.05,10.950000000000001,0)" xlink:href="#X"/><use transform="matrix(0.05,0,0,0.05,14.9,0)" xlink:href="#Y"/><use transform="matrix(0.05,0,0,0.05,18.85,0)" xlink:href="#Z"/></g><path d="M240 0l2-218c-23 76-54 145-80 218h-23L58-218 59 0H30v-248h44l77 211c21-75 51-140 76-211h43V0h-30" id="aa"/><path d="M210-169c-67 3-38 105-44 169h-31v-121c0-29-5-50-35-48C34-165 62-65 56 0H25l-1-190h30c1 10-1 24 2 32 10-44 99-50 107 0 11-21 27-35 58-36 85-2 47 119 55 194h-31v-121c0-29-5-49-35-48" id="ab"/><path d="M100-194c62-1 85 37 85 99 1 63-27 99-86 99S16-35 15-95c0-66 28-99 85-99zM99-20c44 1 53-31 53-75 0-43-8-75-51-75s-53 32-53 75 10 74 51 75" id="ac"/><path d="M114-163C36-179 61-72 57 0H25l-1-190h30c1 12-1 29 2 39 6-27 23-49 58-41v29" id="ad"/><path d="M179-190L93 31C79 59 56 82 12 73V49c39 6 53-20 64-50L1-190h34L92-34l54-156h33" id="ae"/><g id="e"><use transform="matrix(0.05,0,0,0.05,0,0)" xlink:href="#aa"/><use transform="matrix(0.05,0,0,0.05,14.950000000000001,0)" xlink:href="#Z"/><use transform="matrix(0.05,0,0,0.05,24.950000000000003,0)" xlink:href="#ab"/><use transform="matrix(0.05,0,0,0.05,39.900000000000006,0)" xlink:href="#ac"/><use transform="matrix(0.05,0,0,0.05,49.900000000000006,0)" xlink:href="#ad"/><use transform="matrix(0.05,0,0,0.05,55.85,0)" xlink:href="#ae"/></g><path d="M185-189c-5-48-123-54-124 2 14 75 158 14 163 119 3 78-121 87-175 55-17-10-28-26-33-46l33-7c5 56 141 63 141-1 0-78-155-14-162-118-5-82 145-84 179-34 5 7 8 16 11 25" id="af"/><path d="M126-127c33 6 58 20 58 59 0 88-139 92-164 29-3-8-5-16-6-25l32-3c6 27 21 44 54 44 32 0 52-15 52-46 0-38-36-46-79-43v-28c39 1 72-4 72-42 0-27-17-43-46-43-28 0-47 15-49 41l-32-3c6-42 35-63 81-64 48-1 79 21 79 65 0 36-21 52-52 59" id="ag"/><g id="f"><use transform="matrix(0.05,0,0,0.05,0,0)" xlink:href="#af"/><use transform="matrix(0.05,0,0,0.05,12,0)" xlink:href="#ag"/></g><path d="M266 0h-40l-56-210L115 0H75L2-248h35L96-30l15-64 43-154h32l59 218 59-218h35" id="ah"/><path d="M115-194c53 0 69 39 70 98 0 66-23 100-70 100C84 3 66-7 56-30L54 0H23l1-261h32v101c10-23 28-34 59-34zm-8 174c40 0 45-34 45-75 0-40-5-75-45-74-42 0-51 32-51 76 0 43 10 73 51 73" id="ai"/><path d="M96-169c-40 0-48 33-48 73s9 75 48 75c24 0 41-14 43-38l32 2c-6 37-31 61-74 61-59 0-76-41-82-99-10-93 101-131 147-64 4 7 5 14 7 22l-32 3c-4-21-16-35-41-35" id="aj"/><path d="M143 0L79-87 56-68V0H24v-261h32v163l83-92h37l-77 82L181 0h-38" id="ak"/><path d="M59-47c-2 24 18 29 38 22v24C64 9 27 4 27-40v-127H5v-23h24l9-43h21v43h35v23H59v120" id="al"/><g id="g"><use transform="matrix(0.05,0,0,0.05,0,0)" xlink:href="#ah"/><use transform="matrix(0.05,0,0,0.05,16.599999999999998,0)" xlink:href="#Z"/><use transform="matrix(0.05,0,0,0.05,26.599999999999994,0)" xlink:href="#ai"/><use transform="matrix(0.05,0,0,0.05,36.599999999999994,0)" xlink:href="#af"/><use transform="matrix(0.05,0,0,0.05,48.599999999999994,0)" xlink:href="#ac"/><use transform="matrix(0.05,0,0,0.05,58.599999999999994,0)" xlink:href="#aj"/><use transform="matrix(0.05,0,0,0.05,67.6,0)" xlink:href="#ak"/><use transform="matrix(0.05,0,0,0.05,76.6,0)" xlink:href="#Z"/><use transform="matrix(0.05,0,0,0.05,86.6,0)" xlink:href="#al"/></g><path d="M249-183c0 48-29 72-75 77L221 0h-36l-43-103H65L45 0H11l48-248c83 2 190-17 190 65zm-34 3c0-55-74-39-127-41l-18 92c63-1 145 13 145-51" id="am"/><path d="M165-48c-4 18 1 34 23 27l-3 20c-29 8-62 0-52-35h-2C116-14 99 4 63 4 30 4 8-16 8-49c0-68 71-67 138-67 10-26 0-56-31-54-26 1-42 9-47 31l-32-5c8-67 160-71 144 15-5 28-9 54-15 81zM42-50c3 52 80 24 89-6 7-12 7-24 11-38-47 1-103-4-100 44" id="an"/><path d="M133-28C103 26-5 8 13-77c13-62 24-115 90-117 29-1 46 15 56 35l19-102h32L160 0h-30zM45-64c-2 27 10 43 35 43 54-1 69-50 69-103 0-29-15-46-42-46-53-1-58 58-62 106" id="ao"/><path d="M55-144c13 50 104 24 104 88C159 21 15 23 1-39l26-10c6 40 102 42 102-4-13-50-104-23-104-87 0-71 143-71 148-8l-29 4c-5-35-85-37-89 0" id="ap"/><g id="h"><use transform="matrix(0.07407407407407408,0,0,0.07407407407407408,0,0)" xlink:href="#am"/><use transform="matrix(0.07407407407407408,0,0,0.07407407407407408,19.185185185185187,0)" xlink:href="#S"/><use transform="matrix(0.07407407407407408,0,0,0.07407407407407408,34,0)" xlink:href="#an"/><use transform="matrix(0.07407407407407408,0,0,0.07407407407407408,48.81481481481481,0)" xlink:href="#ao"/><use transform="matrix(0.07407407407407408,0,0,0.07407407407407408,63.629629629629626,0)" xlink:href="#S"/><use transform="matrix(0.07407407407407408,0,0,0.07407407407407408,78.44444444444446,0)" xlink:href="#Q"/><use transform="matrix(0.07407407407407408,0,0,0.07407407407407408,87.25925925925927,0)" xlink:href="#ap"/></g><path d="M247 0h-39l-15-214-24 57L95 0H56L31-248h35L82-30l101-218h33l16 218 101-218h35" id="aq"/><path d="M51-54c-9 22 5 41 31 30L79-1C43 14 10-4 19-52l22-115H19l5-23h22l19-43h21l-9 43h35l-4 23H73" id="ar"/><g id="i"><use transform="matrix(0.07407407407407408,0,0,0.07407407407407408,0,0)" xlink:href="#aq"/><use transform="matrix(0.07407407407407408,0,0,0.07407407407407408,25.111111111111114,0)" xlink:href="#Q"/><use transform="matrix(0.07407407407407408,0,0,0.07407407407407408,33.92592592592593,0)" xlink:href="#T"/><use transform="matrix(0.07407407407407408,0,0,0.07407407407407408,39.777777777777786,0)" xlink:href="#ar"/><use transform="matrix(0.07407407407407408,0,0,0.07407407407407408,47.18518518518519,0)" xlink:href="#S"/><use transform="matrix(0.07407407407407408,0,0,0.07407407407407408,62.00000000000001,0)" xlink:href="#Q"/><use transform="matrix(0.07407407407407408,0,0,0.07407407407407408,70.81481481481482,0)" xlink:href="#ap"/></g><path d="M195 0l-74-108L45 0H8l94-129-87-119h37l69 98 67-98h37l-84 118L233 0h-38" id="as"/><path d="M137 0h-34L2-248h35l83 218 83-218h36" id="at"/><path d="M33 0v-248h34V0H33" id="au"/><path d="M209 0H11v-25l151-195H24v-28h176v25L50-27h159V0" id="av"/><path d="M141-36C126-15 110 5 73 4 37 3 15-17 15-53c-1-64 63-63 125-63 3-35-9-54-41-54-24 1-41 7-42 31l-33-3c5-37 33-52 76-52 45 0 72 20 72 64v82c-1 20 7 32 28 27v20c-31 9-61-2-59-35zM48-53c0 20 12 33 32 33 41-3 63-29 60-74-43 2-92-5-92 41" id="aw"/><g id="j"><use transform="matrix(0.07407407407407408,0,0,0.07407407407407408,0,0)" xlink:href="#as"/><use transform="matrix(0.07407407407407408,0,0,0.07407407407407408,17.77777777777778,0)" xlink:href="#at"/><use transform="matrix(0.07407407407407408,0,0,0.07407407407407408,35.55555555555556,0)" xlink:href="#au"/><use transform="matrix(0.07407407407407408,0,0,0.07407407407407408,42.96296296296296,0)" xlink:href="#av"/><use transform="matrix(0.07407407407407408,0,0,0.07407407407407408,59.18518518518519,0)" xlink:href="#W"/><use transform="matrix(0.07407407407407408,0,0,0.07407407407407408,75.40740740740742,0)" xlink:href="#ac"/><use transform="matrix(0.07407407407407408,0,0,0.07407407407407408,90.22222222222223,0)" xlink:href="#ad"/><use transform="matrix(0.07407407407407408,0,0,0.07407407407407408,99.03703703703704,0)" xlink:href="#ab"/><use transform="matrix(0.07407407407407408,0,0,0.07407407407407408,121.18518518518519,0)" xlink:href="#aw"/><use transform="matrix(0.07407407407407408,0,0,0.07407407407407408,136,0)" xlink:href="#al"/><use transform="matrix(0.07407407407407408,0,0,0.07407407407407408,143.40740740740742,0)" xlink:href="#ah"/><use transform="matrix(0.07407407407407408,0,0,0.07407407407407408,168.00000000000003,0)" xlink:href="#ad"/><use transform="matrix(0.07407407407407408,0,0,0.07407407407407408,176.81481481481484,0)" xlink:href="#X"/><use transform="matrix(0.07407407407407408,0,0,0.07407407407407408,182.66666666666669,0)" xlink:href="#al"/><use transform="matrix(0.07407407407407408,0,0,0.07407407407407408,190.0740740740741,0)" xlink:href="#Z"/><use transform="matrix(0.07407407407407408,0,0,0.07407407407407408,204.8888888888889,0)" xlink:href="#ad"/></g><path d="M238-179c0 84-86 86-175 82L45 0H11l48-248c82 0 179-12 179 69zm-34 1c0-53-64-42-116-43l-19 98c63 0 135 9 135-55" id="ax"/><path d="M89 0H52L20-190h33L74-25l89-165h34" id="ay"/><g id="k"><use transform="matrix(0.07407407407407408,0,0,0.07407407407407408,0,0)" xlink:href="#ax"/><use transform="matrix(0.07407407407407408,0,0,0.07407407407407408,17.77777777777778,0)" xlink:href="#Q"/><use transform="matrix(0.07407407407407408,0,0,0.07407407407407408,26.592592592592595,0)" xlink:href="#O"/><use transform="matrix(0.07407407407407408,0,0,0.07407407407407408,41.40740740740741,0)" xlink:href="#ay"/><use transform="matrix(0.07407407407407408,0,0,0.07407407407407408,54.74074074074075,0)" xlink:href="#T"/><use transform="matrix(0.07407407407407408,0,0,0.07407407407407408,60.5925925925926,0)" xlink:href="#ao"/><use transform="matrix(0.07407407407407408,0,0,0.07407407407407408,75.40740740740742,0)" xlink:href="#S"/><use transform="matrix(0.07407407407407408,0,0,0.07407407407407408,90.22222222222223,0)" xlink:href="#Q"/><use transform="matrix(0.07407407407407408,0,0,0.07407407407407408,99.03703703703704,0)" xlink:href="#ap"/></g><path d="M153-248C145-148 188 4 80 4 36 3 13-21 6-62l32-5c4 25 16 42 43 43 27 0 39-20 39-49v-147H72v-28h81" id="az"/><path d="M140-251c81 0 123 46 123 126C263-46 219 4 140 4 59 4 17-45 17-125s42-126 123-126zm0 227c63 0 89-41 89-101s-29-99-89-99c-61 0-89 39-89 99S79-25 140-24" id="aA"/><path d="M190 0L58-211 59 0H30v-248h39L202-35l-2-213h31V0h-41" id="aB"/><path d="M233-177c-1 41-23 64-60 70L243 0h-38l-65-103H63V0H30v-248c88 3 205-21 203 71zM63-129c60-2 137 13 137-47 0-61-80-42-137-45v92" id="aC"/><path d="M85-194c31 0 48 13 60 33l-1-100h32l1 261h-30c-2-10 0-23-3-31C134-8 116 4 85 4 32 4 16-35 15-94c0-66 23-100 70-100zm9 24c-40 0-46 34-46 75 0 40 6 74 45 74 42 0 51-32 51-76 0-42-9-74-50-73" id="aD"/><g id="l"><use transform="matrix(0.05,0,0,0.05,0,0)" xlink:href="#as"/><use transform="matrix(0.05,0,0,0.05,12,0)" xlink:href="#at"/><use transform="matrix(0.05,0,0,0.05,24,0)" xlink:href="#au"/><use transform="matrix(0.05,0,0,0.05,29,0)" xlink:href="#av"/><use transform="matrix(0.05,0,0,0.05,39.95,0)" xlink:href="#az"/><use transform="matrix(0.05,0,0,0.05,48.95,0)" xlink:href="#af"/><use transform="matrix(0.05,0,0,0.05,60.95,0)" xlink:href="#aA"/><use transform="matrix(0.05,0,0,0.05,74.95,0)" xlink:href="#aB"/><use transform="matrix(0.05,0,0,0.05,87.9,0)" xlink:href="#aC"/><use transform="matrix(0.05,0,0,0.05,100.85000000000001,0)" xlink:href="#Z"/><use transform="matrix(0.05,0,0,0.05,110.85000000000001,0)" xlink:href="#aw"/><use transform="matrix(0.05,0,0,0.05,120.85000000000001,0)" xlink:href="#aD"/><use transform="matrix(0.05,0,0,0.05,130.85000000000002,0)" xlink:href="#Z"/><use transform="matrix(0.05,0,0,0.05,140.85000000000002,0)" xlink:href="#ad"/></g><path d="M160-131c35 5 61 23 61 61C221 17 115-2 30 0v-248c76 3 177-17 177 60 0 33-19 50-47 57zm-97-11c50-1 110 9 110-42 0-47-63-36-110-37v79zm0 115c55-2 124 14 124-45 0-56-70-42-124-44v89" id="aE"/><path d="M117-194c89-4 53 116 60 194h-32v-121c0-31-8-49-39-48C34-167 62-67 57 0H25l-1-190h30c1 10-1 24 2 32 11-22 29-35 61-36" id="aF"/><g id="m"><use transform="matrix(0.05,0,0,0.05,0,0)" xlink:href="#as"/><use transform="matrix(0.05,0,0,0.05,12,0)" xlink:href="#at"/><use transform="matrix(0.05,0,0,0.05,24,0)" xlink:href="#au"/><use transform="matrix(0.05,0,0,0.05,29,0)" xlink:href="#av"/><use transform="matrix(0.05,0,0,0.05,39.95,0)" xlink:href="#aE"/><use transform="matrix(0.05,0,0,0.05,51.95,0)" xlink:href="#X"/><use transform="matrix(0.05,0,0,0.05,55.900000000000006,0)" xlink:href="#aF"/><use transform="matrix(0.05,0,0,0.05,65.9,0)" xlink:href="#aw"/><use transform="matrix(0.05,0,0,0.05,75.9,0)" xlink:href="#ad"/><use transform="matrix(0.05,0,0,0.05,81.85000000000001,0)" xlink:href="#ae"/><use transform="matrix(0.05,0,0,0.05,90.85000000000001,0)" xlink:href="#aC"/><use transform="matrix(0.05,0,0,0.05,103.80000000000001,0)" xlink:href="#Z"/><use transform="matrix(0.05,0,0,0.05,113.80000000000001,0)" xlink:href="#aw"/><use transform="matrix(0.05,0,0,0.05,123.80000000000001,0)" xlink:href="#aD"/><use transform="matrix(0.05,0,0,0.05,133.8,0)" xlink:href="#Z"/><use transform="matrix(0.05,0,0,0.05,143.8,0)" xlink:href="#ad"/></g><path d="M84 4C-5 8 30-112 23-190h32v120c0 31 7 50 39 49 72-2 45-101 50-169h31l1 190h-30c-1-10 1-25-2-33-11 22-28 36-60 37" id="aG"/><g id="n"><use transform="matrix(0.05,0,0,0.05,0,0)" xlink:href="#as"/><use transform="matrix(0.05,0,0,0.05,12,0)" xlink:href="#at"/><use transform="matrix(0.05,0,0,0.05,24,0)" xlink:href="#au"/><use transform="matrix(0.05,0,0,0.05,29,0)" xlink:href="#av"/><use transform="matrix(0.05,0,0,0.05,39.95,0)" xlink:href="#aE"/><use transform="matrix(0.05,0,0,0.05,51.95,0)" xlink:href="#X"/><use transform="matrix(0.05,0,0,0.05,55.900000000000006,0)" xlink:href="#aF"/><use transform="matrix(0.05,0,0,0.05,65.9,0)" xlink:href="#aw"/><use transform="matrix(0.05,0,0,0.05,75.9,0)" xlink:href="#ad"/><use transform="matrix(0.05,0,0,0.05,81.85000000000001,0)" xlink:href="#ae"/><use transform="matrix(0.05,0,0,0.05,90.85000000000001,0)" xlink:href="#aE"/><use transform="matrix(0.05,0,0,0.05,102.85000000000001,0)" xlink:href="#aG"/><use transform="matrix(0.05,0,0,0.05,112.85000000000001,0)" xlink:href="#aF"/><use transform="matrix(0.05,0,0,0.05,122.85000000000001,0)" xlink:href="#aD"/><use transform="matrix(0.05,0,0,0.05,132.85000000000002,0)" xlink:href="#Y"/><use transform="matrix(0.05,0,0,0.05,136.8,0)" xlink:href="#Z"/><use transform="matrix(0.05,0,0,0.05,146.8,0)" xlink:href="#aC"/><use transform="matrix(0.05,0,0,0.05,159.75,0)" xlink:href="#Z"/><use transform="matrix(0.05,0,0,0.05,169.75,0)" xlink:href="#aw"/><use transform="matrix(0.05,0,0,0.05,179.75,0)" xlink:href="#aD"/><use transform="matrix(0.05,0,0,0.05,189.75,0)" xlink:href="#Z"/><use transform="matrix(0.05,0,0,0.05,199.75,0)" xlink:href="#ad"/></g><g id="o"><use transform="matrix(0.05,0,0,0.05,0,0)" xlink:href="#as"/><use transform="matrix(0.05,0,0,0.05,12,0)" xlink:href="#at"/><use transform="matrix(0.05,0,0,0.05,24,0)" xlink:href="#au"/><use transform="matrix(0.05,0,0,0.05,29,0)" xlink:href="#av"/><use transform="matrix(0.05,0,0,0.05,39.95,0)" xlink:href="#aE"/><use transform="matrix(0.05,0,0,0.05,51.95,0)" xlink:href="#X"/><use transform="matrix(0.05,0,0,0.05,55.900000000000006,0)" xlink:href="#aF"/><use transform="matrix(0.05,0,0,0.05,65.9,0)" xlink:href="#aw"/><use transform="matrix(0.05,0,0,0.05,75.9,0)" xlink:href="#ad"/><use transform="matrix(0.05,0,0,0.05,81.85000000000001,0)" xlink:href="#ae"/><use transform="matrix(0.05,0,0,0.05,90.85000000000001,0)" xlink:href="#aE"/><use transform="matrix(0.05,0,0,0.05,102.85000000000001,0)" xlink:href="#aG"/><use transform="matrix(0.05,0,0,0.05,112.85000000000001,0)" xlink:href="#aF"/><use transform="matrix(0.05,0,0,0.05,122.85000000000001,0)" xlink:href="#aD"/><use transform="matrix(0.05,0,0,0.05,132.85000000000002,0)" xlink:href="#Y"/><use transform="matrix(0.05,0,0,0.05,136.8,0)" xlink:href="#Z"/><use transform="matrix(0.05,0,0,0.05,146.8,0)" xlink:href="#ah"/><use transform="matrix(0.05,0,0,0.05,163.4,0)" xlink:href="#ad"/><use transform="matrix(0.05,0,0,0.05,169.35,0)" xlink:href="#X"/><use transform="matrix(0.05,0,0,0.05,173.29999999999998,0)" xlink:href="#al"/><use transform="matrix(0.05,0,0,0.05,178.29999999999998,0)" xlink:href="#Z"/><use transform="matrix(0.05,0,0,0.05,188.29999999999998,0)" xlink:href="#ad"/></g><path d="M30-248c87 1 191-15 191 75 0 78-77 80-158 76V0H30v-248zm33 125c57 0 124 11 124-50 0-59-68-47-124-48v98" id="aH"/><path d="M108 0H70L1-190h34L89-25l56-165h34" id="aI"/><g id="p"><use transform="matrix(0.05,0,0,0.05,0,0)" xlink:href="#as"/><use transform="matrix(0.05,0,0,0.05,12,0)" xlink:href="#at"/><use transform="matrix(0.05,0,0,0.05,24,0)" xlink:href="#au"/><use transform="matrix(0.05,0,0,0.05,29,0)" xlink:href="#av"/><use transform="matrix(0.05,0,0,0.05,39.95,0)" xlink:href="#az"/><use transform="matrix(0.05,0,0,0.05,48.95,0)" xlink:href="#af"/><use transform="matrix(0.05,0,0,0.05,60.95,0)" xlink:href="#aA"/><use transform="matrix(0.05,0,0,0.05,74.95,0)" xlink:href="#aB"/><use transform="matrix(0.05,0,0,0.05,87.9,0)" xlink:href="#aH"/><use transform="matrix(0.05,0,0,0.05,99.9,0)" xlink:href="#ad"/><use transform="matrix(0.05,0,0,0.05,105.85000000000001,0)" xlink:href="#ac"/><use transform="matrix(0.05,0,0,0.05,115.85000000000001,0)" xlink:href="#aI"/><use transform="matrix(0.05,0,0,0.05,124.85000000000001,0)" xlink:href="#X"/><use transform="matrix(0.05,0,0,0.05,128.8,0)" xlink:href="#aD"/><use transform="matrix(0.05,0,0,0.05,138.8,0)" xlink:href="#Z"/><use transform="matrix(0.05,0,0,0.05,148.8,0)" xlink:href="#ad"/></g><g id="q"><use transform="matrix(0.05,0,0,0.05,0,0)" xlink:href="#as"/><use transform="matrix(0.05,0,0,0.05,12,0)" xlink:href="#at"/><use transform="matrix(0.05,0,0,0.05,24,0)" xlink:href="#au"/><use transform="matrix(0.05,0,0,0.05,29,0)" xlink:href="#av"/><use transform="matrix(0.05,0,0,0.05,39.95,0)" xlink:href="#aE"/><use transform="matrix(0.05,0,0,0.05,51.95,0)" xlink:href="#X"/><use transform="matrix(0.05,0,0,0.05,55.900000000000006,0)" xlink:href="#aF"/><use transform="matrix(0.05,0,0,0.05,65.9,0)" xlink:href="#aw"/><use transform="matrix(0.05,0,0,0.05,75.9,0)" xlink:href="#ad"/><use transform="matrix(0.05,0,0,0.05,81.85000000000001,0)" xlink:href="#ae"/><use transform="matrix(0.05,0,0,0.05,90.85000000000001,0)" xlink:href="#aH"/><use transform="matrix(0.05,0,0,0.05,102.85000000000001,0)" xlink:href="#ad"/><use transform="matrix(0.05,0,0,0.05,108.80000000000001,0)" xlink:href="#ac"/><use transform="matrix(0.05,0,0,0.05,118.80000000000001,0)" xlink:href="#aI"/><use transform="matrix(0.05,0,0,0.05,127.80000000000001,0)" xlink:href="#X"/><use transform="matrix(0.05,0,0,0.05,131.75,0)" xlink:href="#aD"/><use transform="matrix(0.05,0,0,0.05,141.75,0)" xlink:href="#Z"/><use transform="matrix(0.05,0,0,0.05,151.75,0)" xlink:href="#ad"/></g><g id="r"><use transform="matrix(0.05,0,0,0.05,0,0)" xlink:href="#as"/><use transform="matrix(0.05,0,0,0.05,12,0)" xlink:href="#at"/><use transform="matrix(0.05,0,0,0.05,24,0)" xlink:href="#au"/><use transform="matrix(0.05,0,0,0.05,29,0)" xlink:href="#av"/><use transform="matrix(0.05,0,0,0.05,39.95,0)" xlink:href="#az"/><use transform="matrix(0.05,0,0,0.05,48.95,0)" xlink:href="#af"/><use transform="matrix(0.05,0,0,0.05,60.95,0)" xlink:href="#aA"/><use transform="matrix(0.05,0,0,0.05,74.95,0)" xlink:href="#aB"/><use transform="matrix(0.05,0,0,0.05,87.9,0)" xlink:href="#ah"/><use transform="matrix(0.05,0,0,0.05,104.5,0)" xlink:href="#ad"/><use transform="matrix(0.05,0,0,0.05,110.45,0)" xlink:href="#X"/><use transform="matrix(0.05,0,0,0.05,114.40000000000003,0)" xlink:href="#al"/><use transform="matrix(0.05,0,0,0.05,119.40000000000003,0)" xlink:href="#Z"/><use transform="matrix(0.05,0,0,0.05,129.40000000000003,0)" xlink:href="#ad"/></g><g id="s"><use transform="matrix(0.05,0,0,0.05,0,0)" xlink:href="#as"/><use transform="matrix(0.05,0,0,0.05,12,0)" xlink:href="#at"/><use transform="matrix(0.05,0,0,0.05,24,0)" xlink:href="#au"/><use transform="matrix(0.05,0,0,0.05,29,0)" xlink:href="#av"/><use transform="matrix(0.05,0,0,0.05,39.95,0)" xlink:href="#aE"/><use transform="matrix(0.05,0,0,0.05,51.95,0)" xlink:href="#X"/><use transform="matrix(0.05,0,0,0.05,55.900000000000006,0)" xlink:href="#aF"/><use transform="matrix(0.05,0,0,0.05,65.9,0)" xlink:href="#aw"/><use transform="matrix(0.05,0,0,0.05,75.9,0)" xlink:href="#ad"/><use transform="matrix(0.05,0,0,0.05,81.85000000000001,0)" xlink:href="#ae"/><use transform="matrix(0.05,0,0,0.05,90.85000000000001,0)" xlink:href="#ah"/><use transform="matrix(0.05,0,0,0.05,107.45,0)" xlink:href="#ad"/><use transform="matrix(0.05,0,0,0.05,113.40000000000003,0)" xlink:href="#X"/><use transform="matrix(0.05,0,0,0.05,117.35000000000002,0)" xlink:href="#al"/><use transform="matrix(0.05,0,0,0.05,122.35000000000002,0)" xlink:href="#Z"/><use transform="matrix(0.05,0,0,0.05,132.35000000000002,0)" xlink:href="#ad"/></g><path d="M205 0l-28-72H64L36 0H1l101-248h38L239 0h-34zm-38-99l-47-123c-12 45-31 82-46 123h93" id="aJ"/><path d="M143 4C61 4 22-44 18-125c-5-107 100-154 193-111 17 8 29 25 37 43l-32 9c-13-25-37-40-76-40-61 0-88 39-88 99 0 61 29 100 91 101 35 0 62-11 79-27v-45h-74v-28h105v86C228-13 192 4 143 4" id="aK"/><g id="t"><use transform="matrix(0.05,0,0,0.05,0,0)" xlink:href="#as"/><use transform="matrix(0.05,0,0,0.05,12,0)" xlink:href="#at"/><use transform="matrix(0.05,0,0,0.05,24,0)" xlink:href="#au"/><use transform="matrix(0.05,0,0,0.05,29,0)" xlink:href="#av"/><use transform="matrix(0.05,0,0,0.05,39.95,0)" xlink:href="#aC"/><use transform="matrix(0.05,0,0,0.05,52.900000000000006,0)" xlink:href="#aA"/><use transform="matrix(0.05,0,0,0.05,66.9,0)" xlink:href="#af"/><use transform="matrix(0.05,0,0,0.05,78.9,0)" xlink:href="#aE"/><use transform="matrix(0.05,0,0,0.05,90.9,0)" xlink:href="#aJ"/><use transform="matrix(0.05,0,0,0.05,102.9,0)" xlink:href="#aK"/><use transform="matrix(0.05,0,0,0.05,116.9,0)" xlink:href="#aH"/><use transform="matrix(0.05,0,0,0.05,128.9,0)" xlink:href="#ad"/><use transform="matrix(0.05,0,0,0.05,134.85,0)" xlink:href="#ac"/><use transform="matrix(0.05,0,0,0.05,144.85,0)" xlink:href="#aI"/><use transform="matrix(0.05,0,0,0.05,153.85,0)" xlink:href="#X"/><use transform="matrix(0.05,0,0,0.05,157.79999999999998,0)" xlink:href="#aD"/><use transform="matrix(0.05,0,0,0.05,167.79999999999998,0)" xlink:href="#Z"/><use transform="matrix(0.05,0,0,0.05,177.79999999999998,0)" xlink:href="#ad"/></g><g id="u"><use transform="matrix(0.05,0,0,0.05,0,0)" xlink:href="#W"/><use transform="matrix(0.05,0,0,0.05,10.950000000000001,0)" xlink:href="#aG"/><use transform="matrix(0.05,0,0,0.05,20.950000000000003,0)" xlink:href="#al"/><use transform="matrix(0.05,0,0,0.05,25.950000000000003,0)" xlink:href="#aG"/><use transform="matrix(0.05,0,0,0.05,35.95,0)" xlink:href="#ad"/><use transform="matrix(0.05,0,0,0.05,41.900000000000006,0)" xlink:href="#Z"/></g><path d="M24-231v-30h32v30H24zM-9 49c24 4 33-6 33-30v-209h32V24c2 40-23 58-65 49V49" id="aL"/><g id="v"><use transform="matrix(0.05,0,0,0.05,0,0)" xlink:href="#ac"/><use transform="matrix(0.05,0,0,0.05,10,0)" xlink:href="#ai"/><use transform="matrix(0.05,0,0,0.05,20,0)" xlink:href="#aL"/><use transform="matrix(0.05,0,0,0.05,23.95,0)" xlink:href="#Z"/><use transform="matrix(0.05,0,0,0.05,33.95,0)" xlink:href="#aj"/><use transform="matrix(0.05,0,0,0.05,42.95,0)" xlink:href="#al"/></g><path d="M30 0v-248h187v28H63v79h144v27H63v87h162V0H30" id="aM"/><path d="M141 0L90-78 38 0H4l68-98-65-92h35l48 74 47-74h35l-64 92 68 98h-35" id="aN"/><path d="M135-143c-3-34-86-38-87 0 15 53 115 12 119 90S17 21 10-45l28-5c4 36 97 45 98 0-10-56-113-15-118-90-4-57 82-63 122-42 12 7 21 19 24 35" id="aO"/><path d="M177-190C167-65 218 103 67 71c-23-6-38-20-44-43l32-5c15 47 100 32 89-28v-30C133-14 115 1 83 1 29 1 15-40 15-95c0-56 16-97 71-98 29-1 48 16 59 35 1-10 0-23 2-32h30zM94-22c36 0 50-32 50-73 0-42-14-75-50-75-39 0-46 34-46 75s6 73 46 73" id="aP"/><g id="w"><use transform="matrix(0.05,0,0,0.05,0,0)" xlink:href="#aM"/><use transform="matrix(0.05,0,0,0.05,12,0)" xlink:href="#aN"/><use transform="matrix(0.05,0,0,0.05,21,0)" xlink:href="#X"/><use transform="matrix(0.05,0,0,0.05,24.95,0)" xlink:href="#aO"/><use transform="matrix(0.05,0,0,0.05,33.95,0)" xlink:href="#al"/><use transform="matrix(0.05,0,0,0.05,38.95,0)" xlink:href="#X"/><use transform="matrix(0.05,0,0,0.05,42.900000000000006,0)" xlink:href="#aF"/><use transform="matrix(0.05,0,0,0.05,52.900000000000006,0)" xlink:href="#aP"/></g><path d="M30-248c118-7 216 8 213 122C240-48 200 0 122 0H30v-248zM63-27c89 8 146-16 146-99s-60-101-146-95v194" id="aQ"/><g id="x"><use transform="matrix(0.08641975308641976,0,0,0.08641975308641976,0,0)" xlink:href="#as"/><use transform="matrix(0.08641975308641976,0,0,0.08641975308641976,20.740740740740744,0)" xlink:href="#at"/><use transform="matrix(0.08641975308641976,0,0,0.08641975308641976,41.48148148148149,0)" xlink:href="#au"/><use transform="matrix(0.08641975308641976,0,0,0.08641975308641976,50.12345679012346,0)" xlink:href="#av"/><use transform="matrix(0.08641975308641976,0,0,0.08641975308641976,69.0493827160494,0)" xlink:href="#aQ"/><use transform="matrix(0.08641975308641976,0,0,0.08641975308641976,91.4320987654321,0)" xlink:href="#aw"/><use transform="matrix(0.08641975308641976,0,0,0.08641975308641976,108.71604938271606,0)" xlink:href="#al"/><use transform="matrix(0.08641975308641976,0,0,0.08641975308641976,117.35802469135804,0)" xlink:href="#aw"/></g><path d="M232-93c-1 65-40 97-104 97C67 4 28-28 28-90v-158h33c8 89-33 224 67 224 102 0 64-133 71-224h33v155" id="aR"/><g id="y"><use transform="matrix(0.05,0,0,0.05,0,0)" xlink:href="#aR"/><use transform="matrix(0.05,0,0,0.05,12.950000000000001,0)" xlink:href="#aO"/><use transform="matrix(0.05,0,0,0.05,21.950000000000003,0)" xlink:href="#Z"/><use transform="matrix(0.05,0,0,0.05,31.950000000000003,0)" xlink:href="#aO"/></g><g id="z"><use transform="matrix(0.05,0,0,0.05,0,0)" xlink:href="#aH"/><use transform="matrix(0.05,0,0,0.05,12,0)" xlink:href="#ad"/><use transform="matrix(0.05,0,0,0.05,17.95,0)" xlink:href="#ac"/><use transform="matrix(0.05,0,0,0.05,27.950000000000003,0)" xlink:href="#aD"/><use transform="matrix(0.05,0,0,0.05,37.95,0)" xlink:href="#aG"/><use transform="matrix(0.05,0,0,0.05,47.95,0)" xlink:href="#aj"/><use transform="matrix(0.05,0,0,0.05,56.95,0)" xlink:href="#Z"/><use transform="matrix(0.05,0,0,0.05,66.95,0)" xlink:href="#aO"/></g><g id="A"><use transform="matrix(0.03703703703703704,0,0,0.03703703703703704,0,0)" xlink:href="#aH"/><use transform="matrix(0.03703703703703704,0,0,0.03703703703703704,8.88888888888889,0)" xlink:href="#ad"/><use transform="matrix(0.03703703703703704,0,0,0.03703703703703704,13.296296296296298,0)" xlink:href="#ac"/><use transform="matrix(0.03703703703703704,0,0,0.03703703703703704,20.703703703703706,0)" xlink:href="#aI"/><use transform="matrix(0.03703703703703704,0,0,0.03703703703703704,27.370370370370374,0)" xlink:href="#X"/><use transform="matrix(0.03703703703703704,0,0,0.03703703703703704,30.2962962962963,0)" xlink:href="#aD"/><use transform="matrix(0.03703703703703704,0,0,0.03703703703703704,37.70370370370371,0)" xlink:href="#Z"/><use transform="matrix(0.03703703703703704,0,0,0.03703703703703704,45.111111111111114,0)" xlink:href="#ad"/></g><path d="M106-169C34-169 62-67 57 0H25v-261h32l-1 103c12-21 28-36 61-36 89 0 53 116 60 194h-32v-121c2-32-8-49-39-48" id="aS"/><g id="B"><use transform="matrix(0.03703703703703704,0,0,0.03703703703703704,0,0)" xlink:href="#al"/><use transform="matrix(0.03703703703703704,0,0,0.03703703703703704,3.703703703703704,0)" xlink:href="#aS"/><use transform="matrix(0.03703703703703704,0,0,0.03703703703703704,11.111111111111112,0)" xlink:href="#aw"/><use transform="matrix(0.03703703703703704,0,0,0.03703703703703704,18.51851851851852,0)" xlink:href="#al"/></g><g id="C"><use transform="matrix(0.03703703703703704,0,0,0.03703703703703704,0,0)" xlink:href="#aD"/><use transform="matrix(0.03703703703703704,0,0,0.03703703703703704,7.407407407407408,0)" xlink:href="#ac"/><use transform="matrix(0.03703703703703704,0,0,0.03703703703703704,14.814814814814817,0)" xlink:href="#Z"/><use transform="matrix(0.03703703703703704,0,0,0.03703703703703704,22.222222222222225,0)" xlink:href="#aO"/></g><g id="D"><use transform="matrix(0.03703703703703704,0,0,0.03703703703703704,0,0)" xlink:href="#aF"/><use transform="matrix(0.03703703703703704,0,0,0.03703703703703704,7.407407407407408,0)" xlink:href="#ac"/><use transform="matrix(0.03703703703703704,0,0,0.03703703703703704,14.814814814814817,0)" xlink:href="#al"/></g><g id="E"><use transform="matrix(0.03703703703703704,0,0,0.03703703703703704,0,0)" xlink:href="#aG"/><use transform="matrix(0.03703703703703704,0,0,0.03703703703703704,7.407407407407408,0)" xlink:href="#aO"/><use transform="matrix(0.03703703703703704,0,0,0.03703703703703704,14.074074074074076,0)" xlink:href="#Z"/></g><use transform="matrix(0.03703703703703704,0,0,0.03703703703703704,0,0)" xlink:href="#aw" id="F"/><g id="G"><use transform="matrix(0.03703703703703704,0,0,0.03703703703703704,0,0)" xlink:href="#aC"/><use transform="matrix(0.03703703703703704,0,0,0.03703703703703704,9.592592592592593,0)" xlink:href="#Z"/><use transform="matrix(0.03703703703703704,0,0,0.03703703703703704,17,0)" xlink:href="#aw"/><use transform="matrix(0.03703703703703704,0,0,0.03703703703703704,24.407407407407405,0)" xlink:href="#aD"/><use transform="matrix(0.03703703703703704,0,0,0.03703703703703704,31.814814814814813,0)" xlink:href="#Z"/><use transform="matrix(0.03703703703703704,0,0,0.03703703703703704,39.22222222222223,0)" xlink:href="#ad"/></g><g id="H"><use transform="matrix(0.08641975308641976,0,0,0.08641975308641976,0,0)" xlink:href="#as"/><use transform="matrix(0.08641975308641976,0,0,0.08641975308641976,20.740740740740744,0)" xlink:href="#at"/><use transform="matrix(0.08641975308641976,0,0,0.08641975308641976,41.48148148148149,0)" xlink:href="#au"/><use transform="matrix(0.08641975308641976,0,0,0.08641975308641976,50.12345679012346,0)" xlink:href="#av"/><use transform="matrix(0.08641975308641976,0,0,0.08641975308641976,69.0493827160494,0)" xlink:href="#aa"/><use transform="matrix(0.08641975308641976,0,0,0.08641975308641976,94.8888888888889,0)" xlink:href="#Z"/><use transform="matrix(0.08641975308641976,0,0,0.08641975308641976,112.17283950617285,0)" xlink:href="#aO"/><use transform="matrix(0.08641975308641976,0,0,0.08641975308641976,127.7283950617284,0)" xlink:href="#aO"/><use transform="matrix(0.08641975308641976,0,0,0.08641975308641976,143.28395061728395,0)" xlink:href="#aw"/><use transform="matrix(0.08641975308641976,0,0,0.08641975308641976,160.5679012345679,0)" xlink:href="#aP"/><use transform="matrix(0.08641975308641976,0,0,0.08641975308641976,177.85185185185182,0)" xlink:href="#Z"/></g></defs></g></svg>